<?xml version="1.0" encoding="UTF-8"?>
<svg xmlns="http://www.w3.org/2000/svg" xmlns:xlink="http://www.w3.org/1999/xlink" viewBox="0 0 26 26" version="1.1" width="26px" height="26px">
<g id="surface1">
<path style=" " d="M 11 0 C 8.800781 0 7 1.804688 7 4 L 7 5 L 9 5 L 9 4 C 9 2.882813 9.882813 2 11 2 L 15 2 C 16.117188 2 17 2.882813 17 4 L 17 5 L 19 5 L 19 4 C 19 1.804688 17.199219 0 15 0 Z M 3 6 C 1.34375 6 0 7.34375 0 9 L 0 10 L 5 10 L 5 9.5 C 5 9.222656 5.222656 9 5.5 9 L 7.5 9 C 7.777344 9 8 9.222656 8 9.5 L 8 10 L 18 10 L 18 9.5 C 18 9.222656 18.222656 9 18.5 9 L 20.5 9 C 20.777344 9 21 9.222656 21 9.5 L 21 10 L 26 10 L 26 9 C 26 7.34375 24.65625 6 23 6 Z M 0 11 L 0 19 C 0 20.65625 1.34375 22 3 22 L 23 22 C 24.65625 22 26 20.65625 26 19 L 26 11 L 21 11 L 21 12.5 C 21 12.777344 20.777344 13 20.5 13 L 18.5 13 C 18.222656 13 18 12.777344 18 12.5 L 18 11 L 8 11 L 8 12.5 C 8 12.777344 7.777344 13 7.5 13 L 5.5 13 C 5.222656 13 5 12.777344 5 12.5 L 5 11 Z "/>
</g>
</svg>
